# xmcd
#
# Track frame offsets:
#	182
#	10967
#	24872
#	36232
#	50010
#	59985
#	73570
#	82860
#	94775
#	106675
#	117302
#	128397
#	139972
#	148492
#	159717
#	174847
#	185077
#	198072
#
# Disc length: 2776 seconds
#
# Revision: 0
# Processed by: cddbd v1.4PL0 Copyright (c) Steve Scherf et al.
# Submitted via: dBpowerAMP V4.0
#
DISCID=f90ad612
DTITLE=Nappy Brown  - Night Time Is The Right Time Disk 1
DYEAR=1900
DGENRE=
TTITLE0=Don't Be Angry
TTITLE1=I Wonder What Is Wrong With Me
TTITLE2=Two-Faced Woman (And A Lyin' Man
TTITLE3=That Man
TTITLE4=Just A Little Love
TTITLE5=Is It Really YOU?
TTITLE6=Piddily Patter Patter
TTITLE7=I'm In The Mood
TTITLE8=Well Well Well Baby La
TTITLE9=Open Up That Door
TTITLE10=I'm Getting Lonesome
TTITLE11=My Baby 
TTITLE12=Goody Goody Gum Drop 
TTITLE13=A Long Time
TTITLE14=Bye Bye Baby 
TTITLE15=Am I
TTITLE16=Love Baby 
TTITLE17=Pleasin' You 
EXTD=
EXTT0=
EXTT1=
EXTT2=
EXTT3=
EXTT4=
EXTT5=
EXTT6=
EXTT7=
EXTT8=
EXTT9=
EXTT10=
EXTT11=
EXTT12=
EXTT13=
EXTT14=
EXTT15=
EXTT16=
EXTT17=
PLAYORDER=
